<?xml version="1.0" encoding="UTF-8"?>
<svg xmlns="http://www.w3.org/2000/svg" version="1.1" width="300" height="300" viewBox="0 0 300 300"><rect x="0" y="0" width="300" height="300" fill="#ffffff"/><g transform="scale(9.091)"><g transform="translate(0,0)"><path fill-rule="evenodd" d="M10 0L10 2L11 2L11 0ZM12 0L12 1L13 1L13 2L12 2L12 4L13 4L13 5L11 5L11 6L10 6L10 4L11 4L11 3L8 3L8 4L9 4L9 5L8 5L8 7L9 7L9 8L6 8L6 9L5 9L5 8L0 8L0 19L2 19L2 22L5 22L5 23L4 23L4 25L7 25L7 24L5 24L5 23L7 23L7 22L6 22L6 21L9 21L9 20L10 20L10 23L9 23L9 22L8 22L8 27L9 27L9 28L8 28L8 33L10 33L10 30L11 30L11 33L12 33L12 31L13 31L13 30L11 30L11 28L10 28L10 25L9 25L9 24L11 24L11 25L12 25L12 26L13 26L13 27L12 27L12 29L13 29L13 28L14 28L14 29L16 29L16 30L15 30L15 31L14 31L14 32L15 32L15 33L17 33L17 32L16 32L16 31L18 31L18 32L19 32L19 30L20 30L20 29L23 29L23 31L24 31L24 29L25 29L25 30L26 30L26 31L25 31L25 32L24 32L24 33L26 33L26 32L27 32L27 30L29 30L29 31L28 31L28 33L29 33L29 32L31 32L31 33L32 33L32 32L31 32L31 31L32 31L32 30L31 30L31 29L29 29L29 28L32 28L32 26L33 26L33 24L32 24L32 26L31 26L31 27L29 27L29 26L30 26L30 25L29 25L29 24L31 24L31 23L32 23L32 22L33 22L33 21L32 21L32 20L31 20L31 19L32 19L32 18L33 18L33 17L32 17L32 16L31 16L31 15L32 15L32 14L33 14L33 13L31 13L31 15L30 15L30 16L31 16L31 19L30 19L30 17L29 17L29 15L28 15L28 14L27 14L27 13L30 13L30 12L31 12L31 11L32 11L32 10L33 10L33 9L32 9L32 8L31 8L31 9L30 9L30 8L29 8L29 9L30 9L30 10L28 10L28 11L30 11L30 12L27 12L27 9L28 9L28 8L27 8L27 9L26 9L26 8L25 8L25 9L26 9L26 10L25 10L25 11L24 11L24 13L23 13L23 12L22 12L22 11L23 11L23 10L24 10L24 9L23 9L23 5L24 5L24 7L25 7L25 3L24 3L24 2L21 2L21 3L20 3L20 5L21 5L21 6L20 6L20 8L22 8L22 9L18 9L18 8L19 8L19 6L18 6L18 5L17 5L17 3L14 3L14 4L13 4L13 2L16 2L16 1L18 1L18 2L19 2L19 1L20 1L20 0L19 0L19 1L18 1L18 0L16 0L16 1L13 1L13 0ZM21 0L21 1L22 1L22 0ZM23 0L23 1L24 1L24 0ZM8 1L8 2L9 2L9 1ZM21 3L21 4L22 4L22 5L23 5L23 4L22 4L22 3ZM14 4L14 5L13 5L13 7L12 7L12 6L11 6L11 7L12 7L12 9L11 9L11 8L10 8L10 9L6 9L6 10L5 10L5 11L6 11L6 12L3 12L3 9L2 9L2 10L1 10L1 12L2 12L2 13L1 13L1 14L2 14L2 13L4 13L4 16L5 16L5 14L7 14L7 13L6 13L6 12L7 12L7 11L6 11L6 10L8 10L8 11L9 11L9 12L8 12L8 13L9 13L9 12L11 12L11 13L10 13L10 14L8 14L8 16L11 16L11 14L13 14L13 15L12 15L12 17L8 17L8 18L7 18L7 17L6 17L6 18L5 18L5 20L3 20L3 21L6 21L6 20L7 20L7 19L8 19L8 20L9 20L9 18L11 18L11 19L10 19L10 20L11 20L11 22L13 22L13 23L12 23L12 25L14 25L14 26L16 26L16 27L17 27L17 28L16 28L16 29L17 29L17 30L19 30L19 29L20 29L20 28L21 28L21 27L20 27L20 26L19 26L19 25L24 25L24 24L18 24L18 23L17 23L17 24L18 24L18 25L17 25L17 26L16 26L16 25L15 25L15 23L14 23L14 22L16 22L16 21L21 21L21 23L22 23L22 22L23 22L23 23L25 23L25 22L26 22L26 21L27 21L27 23L28 23L28 24L29 24L29 23L28 23L28 22L29 22L29 21L30 21L30 23L31 23L31 20L30 20L30 19L29 19L29 17L27 17L27 16L26 16L26 15L25 15L25 16L23 16L23 17L22 17L22 16L21 16L21 17L20 17L20 15L21 15L21 14L19 14L19 13L20 13L20 12L21 12L21 13L22 13L22 15L24 15L24 14L26 14L26 13L27 13L27 12L25 12L25 13L24 13L24 14L23 14L23 13L22 13L22 12L21 12L21 11L20 11L20 10L18 10L18 9L14 9L14 5L16 5L16 4ZM9 6L9 7L10 7L10 6ZM15 6L15 7L16 7L16 8L18 8L18 6L17 6L17 7L16 7L16 6ZM21 6L21 7L22 7L22 6ZM10 9L10 11L11 11L11 9ZM12 9L12 10L13 10L13 11L12 11L12 13L13 13L13 11L16 11L16 10L13 10L13 9ZM30 10L30 11L31 11L31 10ZM14 12L14 18L13 18L13 17L12 17L12 18L13 18L13 19L12 19L12 21L13 21L13 22L14 22L14 21L16 21L16 19L17 19L17 18L20 18L20 19L18 19L18 20L23 20L23 19L21 19L21 18L20 18L20 17L18 17L18 16L19 16L19 14L17 14L17 13L16 13L16 12ZM1 15L1 16L2 16L2 15ZM6 15L6 16L7 16L7 15ZM16 15L16 16L18 16L18 15ZM25 16L25 17L26 17L26 18L27 18L27 17L26 17L26 16ZM1 17L1 18L2 18L2 17ZM15 17L15 18L16 18L16 17ZM23 17L23 18L24 18L24 17ZM6 18L6 19L7 19L7 18ZM13 19L13 21L14 21L14 19ZM25 19L25 21L26 21L26 20L27 20L27 21L29 21L29 20L27 20L27 19ZM0 21L0 25L1 25L1 21ZM23 21L23 22L24 22L24 21ZM19 22L19 23L20 23L20 22ZM2 23L2 24L3 24L3 23ZM25 25L25 28L28 28L28 25ZM17 26L17 27L18 27L18 28L20 28L20 27L18 27L18 26ZM22 26L22 28L23 28L23 29L24 29L24 28L23 28L23 26ZM26 26L26 27L27 27L27 26ZM14 27L14 28L15 28L15 27ZM26 29L26 30L27 30L27 29ZM21 30L21 31L20 31L20 33L21 33L21 32L22 32L22 30ZM30 30L30 31L31 31L31 30ZM0 0L0 7L7 7L7 0ZM1 1L1 6L6 6L6 1ZM2 2L2 5L5 5L5 2ZM26 0L26 7L33 7L33 0ZM27 1L27 6L32 6L32 1ZM28 2L28 5L31 5L31 2ZM0 26L0 33L7 33L7 26ZM1 27L1 32L6 32L6 27ZM2 28L2 31L5 31L5 28Z" fill="#000000"/></g></g></svg>
