<?xml version="1.0" encoding="UTF-8"?>
<svg xmlns="http://www.w3.org/2000/svg" version="1.1" width="300" height="300" viewBox="0 0 300 300"><rect x="0" y="0" width="300" height="300" fill="#ffffff"/><g transform="scale(9.091)"><g transform="translate(0,0)"><path fill-rule="evenodd" d="M8 0L8 1L10 1L10 0ZM15 0L15 1L16 1L16 2L15 2L15 3L14 3L14 1L13 1L13 2L11 2L11 4L10 4L10 3L9 3L9 2L8 2L8 5L9 5L9 6L8 6L8 7L9 7L9 8L8 8L8 9L7 9L7 8L6 8L6 9L4 9L4 8L0 8L0 10L1 10L1 11L0 11L0 12L1 12L1 14L2 14L2 16L0 16L0 18L1 18L1 17L2 17L2 16L3 16L3 17L4 17L4 18L3 18L3 20L2 20L2 19L1 19L1 21L0 21L0 22L1 22L1 21L2 21L2 23L1 23L1 24L0 24L0 25L1 25L1 24L2 24L2 23L3 23L3 24L4 24L4 23L3 23L3 22L5 22L5 25L8 25L8 26L10 26L10 25L8 25L8 24L10 24L10 23L8 23L8 24L6 24L6 23L7 23L7 22L8 22L8 20L9 20L9 21L10 21L10 22L11 22L11 23L13 23L13 24L12 24L12 25L11 25L11 28L12 28L12 29L13 29L13 28L12 28L12 26L13 26L13 27L14 27L14 25L15 25L15 26L18 26L18 25L17 25L17 24L14 24L14 21L15 21L15 20L13 20L13 17L14 17L14 18L15 18L15 19L16 19L16 23L18 23L18 24L19 24L19 23L18 23L18 22L17 22L17 21L19 21L19 20L18 20L18 19L19 19L19 17L20 17L20 18L21 18L21 19L20 19L20 20L21 20L21 21L20 21L20 23L22 23L22 22L21 22L21 21L22 21L22 20L23 20L23 19L22 19L22 18L25 18L25 16L22 16L22 15L21 15L21 12L20 12L20 13L19 13L19 14L17 14L17 11L15 11L15 12L14 12L14 10L15 10L15 9L16 9L16 10L17 10L17 8L18 8L18 12L19 12L19 9L20 9L20 10L22 10L22 11L23 11L23 12L22 12L22 14L23 14L23 12L24 12L24 9L23 9L23 10L22 10L22 8L24 8L24 7L25 7L25 4L24 4L24 7L23 7L23 5L21 5L21 6L20 6L20 5L19 5L19 6L18 6L18 4L16 4L16 2L18 2L18 1L17 1L17 0ZM19 0L19 1L20 1L20 2L19 2L19 4L21 4L21 3L20 3L20 2L24 2L24 3L25 3L25 2L24 2L24 1L25 1L25 0L23 0L23 1L20 1L20 0ZM12 3L12 5L10 5L10 6L9 6L9 7L10 7L10 8L9 8L9 9L8 9L8 10L7 10L7 9L6 9L6 10L3 10L3 9L2 9L2 11L1 11L1 12L2 12L2 14L3 14L3 15L4 15L4 17L5 17L5 19L4 19L4 20L3 20L3 21L5 21L5 22L7 22L7 21L5 21L5 19L6 19L6 20L8 20L8 19L10 19L10 20L12 20L12 19L11 19L11 18L12 18L12 17L13 17L13 16L14 16L14 17L15 17L15 16L14 16L14 15L16 15L16 16L19 16L19 15L16 15L16 14L14 14L14 15L13 15L13 16L12 16L12 14L13 14L13 12L12 12L12 14L11 14L11 15L10 15L10 13L11 13L11 11L13 11L13 10L14 10L14 9L13 9L13 8L15 8L15 7L16 7L16 8L17 8L17 7L18 7L18 8L19 8L19 7L20 7L20 6L19 6L19 7L18 7L18 6L17 6L17 5L13 5L13 4L14 4L14 3ZM22 3L22 4L23 4L23 3ZM12 5L12 7L11 7L11 6L10 6L10 7L11 7L11 8L12 8L12 7L13 7L13 5ZM14 6L14 7L15 7L15 6ZM16 6L16 7L17 7L17 6ZM21 6L21 8L20 8L20 9L21 9L21 8L22 8L22 6ZM25 8L25 10L26 10L26 11L27 11L27 13L29 13L29 12L28 12L28 11L31 11L31 12L32 12L32 11L33 11L33 8L32 8L32 9L31 9L31 8L28 8L28 9L26 9L26 8ZM9 9L9 10L8 10L8 11L7 11L7 10L6 10L6 11L7 11L7 12L4 12L4 11L3 11L3 14L4 14L4 13L8 13L8 11L9 11L9 10L10 10L10 9ZM28 9L28 10L27 10L27 11L28 11L28 10L31 10L31 11L32 11L32 10L31 10L31 9ZM9 12L9 13L10 13L10 12ZM24 13L24 15L26 15L26 20L24 20L24 21L23 21L23 27L22 27L22 25L21 25L21 24L20 24L20 25L21 25L21 28L20 28L20 26L19 26L19 28L18 28L18 30L17 30L17 32L16 32L16 28L17 28L17 27L15 27L15 28L14 28L14 29L15 29L15 30L13 30L13 33L17 33L17 32L18 32L18 33L21 33L21 32L20 32L20 31L21 31L21 29L22 29L22 30L23 30L23 29L25 29L25 30L24 30L24 32L25 32L25 33L26 33L26 32L27 32L27 33L28 33L28 32L30 32L30 33L31 33L31 32L30 32L30 29L31 29L31 31L32 31L32 32L33 32L33 31L32 31L32 29L33 29L33 27L32 27L32 29L31 29L31 26L30 26L30 24L29 24L29 23L28 23L28 24L26 24L26 23L27 23L27 22L28 22L28 21L26 21L26 20L29 20L29 21L30 21L30 22L31 22L31 24L32 24L32 25L33 25L33 24L32 24L32 23L33 23L33 21L31 21L31 20L30 20L30 18L31 18L31 19L32 19L32 20L33 20L33 19L32 19L32 18L33 18L33 16L31 16L31 14L32 14L32 13L30 13L30 14L28 14L28 15L27 15L27 14L26 14L26 13ZM5 14L5 15L7 15L7 16L5 16L5 17L7 17L7 18L6 18L6 19L8 19L8 17L7 17L7 16L8 16L8 15L9 15L9 14L8 14L8 15L7 15L7 14ZM20 15L20 16L21 16L21 15ZM28 15L28 16L30 16L30 15ZM9 16L9 18L10 18L10 17L12 17L12 16ZM16 17L16 19L18 19L18 17ZM21 17L21 18L22 18L22 17ZM27 17L27 18L28 18L28 17ZM31 17L31 18L32 18L32 17ZM21 19L21 20L22 20L22 19ZM11 21L11 22L12 22L12 21ZM24 21L24 22L25 22L25 23L26 23L26 22L25 22L25 21ZM25 25L25 28L28 28L28 25ZM26 26L26 27L27 27L27 26ZM29 26L29 29L28 29L28 31L27 31L27 32L28 32L28 31L29 31L29 29L30 29L30 26ZM23 27L23 28L24 28L24 27ZM19 28L19 29L20 29L20 28ZM8 29L8 33L10 33L10 32L12 32L12 31L11 31L11 29L10 29L10 30L9 30L9 29ZM26 29L26 30L27 30L27 29ZM19 30L19 31L18 31L18 32L19 32L19 31L20 31L20 30ZM9 31L9 32L10 32L10 31ZM25 31L25 32L26 32L26 31ZM0 0L0 7L7 7L7 0ZM1 1L1 6L6 6L6 1ZM2 2L2 5L5 5L5 2ZM26 0L26 7L33 7L33 0ZM27 1L27 6L32 6L32 1ZM28 2L28 5L31 5L31 2ZM0 26L0 33L7 33L7 26ZM1 27L1 32L6 32L6 27ZM2 28L2 31L5 31L5 28Z" fill="#000000"/></g></g></svg>
