<?xml version="1.0" encoding="UTF-8"?>
<svg xmlns="http://www.w3.org/2000/svg" version="1.1" width="300" height="300" viewBox="0 0 300 300"><rect x="0" y="0" width="300" height="300" fill="#ffffff"/><g transform="scale(9.091)"><g transform="translate(0,0)"><path fill-rule="evenodd" d="M8 0L8 1L10 1L10 0ZM13 0L13 1L14 1L14 2L11 2L11 4L10 4L10 3L9 3L9 2L8 2L8 5L9 5L9 6L8 6L8 7L9 7L9 8L8 8L8 9L7 9L7 8L6 8L6 9L7 9L7 10L4 10L4 11L3 11L3 12L2 12L2 13L0 13L0 14L1 14L1 16L0 16L0 18L1 18L1 20L0 20L0 22L2 22L2 23L1 23L1 24L0 24L0 25L1 25L1 24L2 24L2 25L4 25L4 24L2 24L2 23L3 23L3 22L2 22L2 21L4 21L4 23L7 23L7 22L8 22L8 24L9 24L9 25L8 25L8 26L9 26L9 27L10 27L10 26L11 26L11 28L12 28L12 29L13 29L13 28L12 28L12 26L13 26L13 24L14 24L14 25L16 25L16 26L17 26L17 27L15 27L15 26L14 26L14 27L15 27L15 28L14 28L14 29L15 29L15 28L16 28L16 29L17 29L17 27L18 27L18 26L19 26L19 27L20 27L20 28L18 28L18 30L17 30L17 32L18 32L18 33L23 33L23 31L22 31L22 30L23 30L23 29L25 29L25 30L24 30L24 32L25 32L25 33L26 33L26 32L27 32L27 33L28 33L28 32L30 32L30 33L31 33L31 32L30 32L30 29L31 29L31 31L32 31L32 32L33 32L33 31L32 31L32 29L33 29L33 27L32 27L32 29L31 29L31 26L30 26L30 24L29 24L29 23L28 23L28 24L26 24L26 23L27 23L27 22L28 22L28 21L26 21L26 20L29 20L29 21L30 21L30 22L31 22L31 24L32 24L32 25L33 25L33 24L32 24L32 23L33 23L33 21L31 21L31 20L30 20L30 18L31 18L31 19L32 19L32 20L33 20L33 19L32 19L32 18L33 18L33 16L31 16L31 14L32 14L32 13L30 13L30 14L28 14L28 15L27 15L27 14L26 14L26 13L24 13L24 15L26 15L26 20L24 20L24 21L23 21L23 27L22 27L22 25L21 25L21 24L20 24L20 25L18 25L18 24L19 24L19 23L18 23L18 24L17 24L17 25L16 25L16 23L17 23L17 21L18 21L18 22L21 22L21 23L22 23L22 22L21 22L21 21L22 21L22 20L23 20L23 19L22 19L22 18L25 18L25 16L22 16L22 15L20 15L20 13L21 13L21 12L19 12L19 10L18 10L18 12L17 12L17 11L15 11L15 10L17 10L17 8L18 8L18 9L19 9L19 8L21 8L21 9L20 9L20 11L21 11L21 10L22 10L22 11L23 11L23 12L22 12L22 14L23 14L23 12L24 12L24 9L23 9L23 10L22 10L22 8L24 8L24 7L25 7L25 4L24 4L24 7L23 7L23 5L18 5L18 3L20 3L20 4L21 4L21 3L20 3L20 2L24 2L24 3L25 3L25 2L24 2L24 1L25 1L25 0L23 0L23 1L21 1L21 0L20 0L20 2L18 2L18 1L19 1L19 0L16 0L16 1L17 1L17 2L15 2L15 1L14 1L14 0ZM17 2L17 3L18 3L18 2ZM12 3L12 5L10 5L10 6L9 6L9 7L10 7L10 8L9 8L9 9L8 9L8 10L7 10L7 11L4 11L4 12L5 12L5 13L4 13L4 14L2 14L2 16L1 16L1 18L2 18L2 19L3 19L3 18L4 18L4 21L5 21L5 20L7 20L7 21L6 21L6 22L7 22L7 21L9 21L9 23L10 23L10 20L12 20L12 19L11 19L11 18L12 18L12 17L13 17L13 16L14 16L14 17L16 17L16 16L18 16L18 15L17 15L17 14L15 14L15 13L16 13L16 12L15 12L15 11L14 11L14 6L15 6L15 7L16 7L16 5L17 5L17 4L16 4L16 5L13 5L13 4L14 4L14 3ZM22 3L22 4L23 4L23 3ZM12 5L12 7L11 7L11 6L10 6L10 7L11 7L11 8L12 8L12 7L13 7L13 5ZM17 6L17 7L18 7L18 6ZM19 6L19 7L20 7L20 6ZM21 6L21 8L22 8L22 6ZM0 8L0 12L1 12L1 11L2 11L2 10L3 10L3 9L4 9L4 8ZM15 8L15 9L16 9L16 8ZM25 8L25 10L26 10L26 11L27 11L27 13L29 13L29 12L28 12L28 11L31 11L31 12L32 12L32 11L33 11L33 8L32 8L32 9L31 9L31 8L28 8L28 9L26 9L26 8ZM1 9L1 10L2 10L2 9ZM9 9L9 10L10 10L10 9ZM28 9L28 10L27 10L27 11L28 11L28 10L31 10L31 11L32 11L32 10L31 10L31 9ZM11 11L11 13L10 13L10 12L6 12L6 13L7 13L7 14L6 14L6 15L8 15L8 14L9 14L9 15L11 15L11 14L12 14L12 16L11 16L11 17L10 17L10 16L9 16L9 17L8 17L8 18L9 18L9 19L8 19L8 20L9 20L9 19L10 19L10 18L11 18L11 17L12 17L12 16L13 16L13 14L12 14L12 12L13 12L13 13L15 13L15 12L14 12L14 11ZM18 12L18 14L19 14L19 12ZM4 14L4 15L5 15L5 14ZM14 14L14 16L15 16L15 14ZM28 15L28 16L30 16L30 15ZM2 16L2 17L3 17L3 16ZM6 16L6 17L7 17L7 16ZM19 16L19 20L22 20L22 19L20 19L20 18L22 18L22 17L21 17L21 16ZM4 17L4 18L5 18L5 17ZM27 17L27 18L28 18L28 17ZM31 17L31 18L32 18L32 17ZM6 18L6 19L7 19L7 18ZM13 18L13 22L14 22L14 23L16 23L16 22L15 22L15 21L17 21L17 19L18 19L18 18L16 18L16 19L15 19L15 21L14 21L14 18ZM11 21L11 22L12 22L12 21ZM24 21L24 22L25 22L25 23L26 23L26 22L25 22L25 21ZM11 23L11 25L12 25L12 24L13 24L13 23ZM5 24L5 25L7 25L7 24ZM20 25L20 27L21 27L21 25ZM25 25L25 28L28 28L28 25ZM26 26L26 27L27 27L27 26ZM29 26L29 29L28 29L28 31L27 31L27 32L28 32L28 31L29 31L29 29L30 29L30 26ZM23 27L23 28L24 28L24 27ZM9 28L9 29L8 29L8 33L9 33L9 31L10 31L10 33L11 33L11 32L12 32L12 31L10 31L10 30L11 30L11 29L10 29L10 28ZM21 28L21 29L22 29L22 28ZM9 29L9 30L10 30L10 29ZM26 29L26 30L27 30L27 29ZM13 30L13 33L15 33L15 32L16 32L16 30ZM18 30L18 31L21 31L21 32L22 32L22 31L21 31L21 30ZM25 31L25 32L26 32L26 31ZM0 0L0 7L7 7L7 0ZM1 1L1 6L6 6L6 1ZM2 2L2 5L5 5L5 2ZM26 0L26 7L33 7L33 0ZM27 1L27 6L32 6L32 1ZM28 2L28 5L31 5L31 2ZM0 26L0 33L7 33L7 26ZM1 27L1 32L6 32L6 27ZM2 28L2 31L5 31L5 28Z" fill="#000000"/></g></g></svg>
