<?xml version="1.0" encoding="UTF-8"?>
<svg xmlns="http://www.w3.org/2000/svg" version="1.1" width="300" height="300" viewBox="0 0 300 300"><rect x="0" y="0" width="300" height="300" fill="#ffffff"/><g transform="scale(9.091)"><g transform="translate(0,0)"><path fill-rule="evenodd" d="M10 0L10 2L11 2L11 0ZM12 0L12 1L13 1L13 2L12 2L12 4L13 4L13 2L14 2L14 4L15 4L15 6L14 6L14 5L11 5L11 6L10 6L10 4L11 4L11 3L8 3L8 4L9 4L9 5L8 5L8 7L9 7L9 8L6 8L6 9L5 9L5 8L0 8L0 9L1 9L1 11L0 11L0 13L1 13L1 11L2 11L2 12L3 12L3 11L4 11L4 13L5 13L5 15L4 15L4 16L3 16L3 14L2 14L2 17L4 17L4 16L5 16L5 18L6 18L6 19L4 19L4 18L3 18L3 19L2 19L2 18L1 18L1 16L0 16L0 19L2 19L2 20L3 20L3 21L8 21L8 22L2 22L2 21L0 21L0 25L1 25L1 22L2 22L2 24L3 24L3 23L8 23L8 24L10 24L10 25L8 25L8 27L9 27L9 28L8 28L8 33L12 33L12 31L13 31L13 30L11 30L11 29L10 29L10 28L11 28L11 27L10 27L10 25L12 25L12 26L13 26L13 27L12 27L12 29L13 29L13 28L14 28L14 29L19 29L19 30L18 30L18 32L16 32L16 31L17 31L17 30L15 30L15 31L14 31L14 32L15 32L15 33L19 33L19 32L22 32L22 33L23 33L23 31L24 31L24 29L25 29L25 30L26 30L26 31L25 31L25 32L24 32L24 33L26 33L26 32L27 32L27 30L29 30L29 31L28 31L28 33L29 33L29 32L31 32L31 33L32 33L32 32L31 32L31 31L30 31L30 30L33 30L33 28L32 28L32 26L33 26L33 24L32 24L32 26L31 26L31 27L29 27L29 26L30 26L30 25L29 25L29 24L31 24L31 23L32 23L32 22L33 22L33 21L32 21L32 20L31 20L31 19L32 19L32 18L33 18L33 17L32 17L32 16L31 16L31 15L32 15L32 14L33 14L33 13L31 13L31 15L30 15L30 16L31 16L31 19L30 19L30 17L29 17L29 15L28 15L28 14L27 14L27 13L30 13L30 12L31 12L31 11L32 11L32 10L33 10L33 9L32 9L32 8L31 8L31 9L30 9L30 8L29 8L29 9L30 9L30 10L28 10L28 11L30 11L30 12L27 12L27 9L28 9L28 8L27 8L27 9L26 9L26 8L25 8L25 6L24 6L24 7L23 7L23 6L22 6L22 4L23 4L23 5L24 5L24 4L23 4L23 3L22 3L22 2L19 2L19 3L20 3L20 7L19 7L19 5L17 5L17 4L16 4L16 3L17 3L17 2L16 2L16 1L17 1L17 0L15 0L15 1L13 1L13 0ZM18 0L18 1L19 1L19 0ZM20 0L20 1L24 1L24 0ZM8 1L8 2L9 2L9 1ZM21 3L21 4L22 4L22 3ZM9 6L9 7L10 7L10 6ZM11 6L11 7L12 7L12 9L11 9L11 8L10 8L10 9L6 9L6 10L7 10L7 11L5 11L5 13L6 13L6 14L7 14L7 13L8 13L8 12L11 12L11 13L9 13L9 14L8 14L8 15L5 15L5 16L7 16L7 17L6 17L6 18L7 18L7 17L9 17L9 18L8 18L8 19L9 19L9 18L10 18L10 17L9 17L9 16L10 16L10 15L9 15L9 14L13 14L13 15L12 15L12 17L11 17L11 19L10 19L10 20L8 20L8 21L10 21L10 22L13 22L13 23L12 23L12 25L15 25L15 26L16 26L16 27L14 27L14 28L18 28L18 27L19 27L19 28L20 28L20 29L21 29L21 30L19 30L19 31L21 31L21 30L22 30L22 31L23 31L23 29L24 29L24 28L23 28L23 26L24 26L24 23L25 23L25 22L26 22L26 21L27 21L27 23L28 23L28 24L29 24L29 23L28 23L28 22L29 22L29 21L30 21L30 23L31 23L31 20L30 20L30 19L29 19L29 17L27 17L27 16L26 16L26 15L25 15L25 14L26 14L26 13L27 13L27 12L25 12L25 10L26 10L26 9L25 9L25 8L23 8L23 9L24 9L24 10L23 10L23 11L22 11L22 12L21 12L21 11L20 11L20 10L21 10L21 9L22 9L22 8L20 8L20 10L16 10L16 11L14 11L14 12L13 12L13 13L12 13L12 11L13 11L13 10L12 10L12 9L14 9L14 10L15 10L15 9L17 9L17 8L18 8L18 6L17 6L17 8L14 8L14 6L13 6L13 7L12 7L12 6ZM15 6L15 7L16 7L16 6ZM21 6L21 7L22 7L22 6ZM2 9L2 10L5 10L5 9ZM10 9L10 11L11 11L11 9ZM30 10L30 11L31 11L31 10ZM23 11L23 14L22 14L22 15L21 15L21 13L20 13L20 12L14 12L14 13L15 13L15 15L14 15L14 16L15 16L15 17L12 17L12 18L13 18L13 19L12 19L12 21L13 21L13 20L14 20L14 21L15 21L15 20L17 20L17 21L19 21L19 22L17 22L17 23L18 23L18 24L15 24L15 23L16 23L16 22L15 22L15 23L14 23L14 24L15 24L15 25L19 25L19 26L20 26L20 27L21 27L21 28L22 28L22 29L23 29L23 28L22 28L22 27L21 27L21 26L23 26L23 22L24 22L24 21L23 21L23 20L22 20L22 19L23 19L23 18L24 18L24 20L25 20L25 21L26 21L26 20L27 20L27 21L29 21L29 20L27 20L27 19L25 19L25 18L24 18L24 17L26 17L26 18L27 18L27 17L26 17L26 16L25 16L25 15L24 15L24 16L23 16L23 14L25 14L25 12L24 12L24 11ZM6 12L6 13L7 13L7 12ZM17 13L17 14L16 14L16 15L17 15L17 16L18 16L18 15L17 15L17 14L19 14L19 15L20 15L20 16L19 16L19 17L17 17L17 20L18 20L18 18L19 18L19 21L22 21L22 22L23 22L23 21L22 21L22 20L21 20L21 19L22 19L22 18L21 18L21 19L20 19L20 18L19 18L19 17L20 17L20 16L21 16L21 17L22 17L22 16L21 16L21 15L20 15L20 14L19 14L19 13ZM0 14L0 15L1 15L1 14ZM8 15L8 16L9 16L9 15ZM3 19L3 20L4 20L4 19ZM6 19L6 20L7 20L7 19ZM14 19L14 20L15 20L15 19ZM10 20L10 21L11 21L11 20ZM8 22L8 23L9 23L9 22ZM19 22L19 23L20 23L20 25L22 25L22 24L21 24L21 23L20 23L20 22ZM5 24L5 25L7 25L7 24ZM25 25L25 28L28 28L28 25ZM17 26L17 27L18 27L18 26ZM26 26L26 27L27 27L27 26ZM29 28L29 29L31 29L31 28ZM9 29L9 32L10 32L10 29ZM26 29L26 30L27 30L27 29ZM0 0L0 7L7 7L7 0ZM1 1L1 6L6 6L6 1ZM2 2L2 5L5 5L5 2ZM26 0L26 7L33 7L33 0ZM27 1L27 6L32 6L32 1ZM28 2L28 5L31 5L31 2ZM0 26L0 33L7 33L7 26ZM1 27L1 32L6 32L6 27ZM2 28L2 31L5 31L5 28Z" fill="#000000"/></g></g></svg>
