<?xml version="1.0" encoding="UTF-8"?>
<svg xmlns="http://www.w3.org/2000/svg" version="1.1" width="300" height="300" viewBox="0 0 300 300"><rect x="0" y="0" width="300" height="300" fill="#ffffff"/><g transform="scale(9.091)"><g transform="translate(0,0)"><path fill-rule="evenodd" d="M9 0L9 1L8 1L8 2L9 2L9 3L8 3L8 4L10 4L10 7L11 7L11 4L12 4L12 5L13 5L13 6L12 6L12 9L13 9L13 10L11 10L11 11L10 11L10 9L11 9L11 8L6 8L6 9L5 9L5 8L0 8L0 9L1 9L1 11L0 11L0 12L1 12L1 11L2 11L2 13L4 13L4 12L5 12L5 11L9 11L9 13L8 13L8 12L6 12L6 13L8 13L8 14L6 14L6 15L8 15L8 14L9 14L9 13L10 13L10 14L11 14L11 13L12 13L12 14L13 14L13 15L12 15L12 17L13 17L13 16L14 16L14 17L15 17L15 16L17 16L17 17L19 17L19 18L17 18L17 19L18 19L18 20L15 20L15 19L16 19L16 18L15 18L15 19L14 19L14 20L15 20L15 21L12 21L12 19L13 19L13 18L11 18L11 19L10 19L10 17L9 17L9 16L5 16L5 15L3 15L3 17L1 17L1 19L2 19L2 20L0 20L0 25L1 25L1 22L3 22L3 19L5 19L5 20L6 20L6 21L5 21L5 22L6 22L6 23L5 23L5 24L6 24L6 25L7 25L7 24L8 24L8 27L9 27L9 25L10 25L10 26L11 26L11 29L12 29L12 30L13 30L13 31L12 31L12 33L13 33L13 32L14 32L14 33L20 33L20 32L19 32L19 31L18 31L18 30L17 30L17 31L18 31L18 32L16 32L16 30L15 30L15 29L19 29L19 30L20 30L20 31L21 31L21 32L22 32L22 33L23 33L23 32L24 32L24 33L25 33L25 32L24 32L24 31L27 31L27 32L28 32L28 33L29 33L29 31L30 31L30 32L31 32L31 33L32 33L32 32L31 32L31 31L30 31L30 30L33 30L33 27L32 27L32 26L33 26L33 24L32 24L32 26L31 26L31 25L30 25L30 24L31 24L31 23L32 23L32 22L33 22L33 21L32 21L32 20L31 20L31 19L32 19L32 18L33 18L33 17L32 17L32 16L31 16L31 15L32 15L32 14L33 14L33 13L31 13L31 15L30 15L30 13L29 13L29 10L28 10L28 8L27 8L27 9L26 9L26 8L24 8L24 7L25 7L25 6L24 6L24 7L23 7L23 6L22 6L22 7L21 7L21 5L24 5L24 4L23 4L23 3L25 3L25 2L23 2L23 1L24 1L24 0L20 0L20 2L18 2L18 1L17 1L17 0L13 0L13 1L11 1L11 2L10 2L10 0ZM13 1L13 2L12 2L12 4L14 4L14 5L15 5L15 4L14 4L14 2L15 2L15 1ZM16 1L16 3L17 3L17 5L16 5L16 6L15 6L15 7L16 7L16 6L17 6L17 8L15 8L15 9L17 9L17 10L19 10L19 11L20 11L20 12L19 12L19 13L20 13L20 12L21 12L21 13L22 13L22 12L21 12L21 11L20 11L20 10L19 10L19 8L20 8L20 9L22 9L22 11L23 11L23 12L24 12L24 11L26 11L26 12L25 12L25 13L24 13L24 14L23 14L23 15L22 15L22 16L21 16L21 15L20 15L20 14L17 14L17 16L19 16L19 17L21 17L21 19L20 19L20 18L19 18L19 19L20 19L20 21L22 21L22 20L21 20L21 19L22 19L22 18L23 18L23 21L24 21L24 22L23 22L23 23L22 23L22 22L21 22L21 23L20 23L20 22L19 22L19 21L15 21L15 22L16 22L16 23L14 23L14 24L13 24L13 25L12 25L12 23L13 23L13 22L12 22L12 21L11 21L11 20L10 20L10 19L9 19L9 17L3 17L3 18L7 18L7 19L6 19L6 20L10 20L10 22L11 22L11 24L10 24L10 25L11 25L11 26L13 26L13 27L12 27L12 29L15 29L15 28L14 28L14 27L15 27L15 26L19 26L19 27L21 27L21 26L19 26L19 25L14 25L14 24L18 24L18 22L19 22L19 24L20 24L20 25L22 25L22 26L24 26L24 25L22 25L22 24L23 24L23 23L24 23L24 24L27 24L27 22L25 22L25 21L27 21L27 20L28 20L28 19L26 19L26 18L25 18L25 17L28 17L28 18L29 18L29 17L30 17L30 19L29 19L29 20L30 20L30 21L28 21L28 24L30 24L30 23L29 23L29 22L30 22L30 21L31 21L31 20L30 20L30 19L31 19L31 16L30 16L30 15L29 15L29 13L28 13L28 16L26 16L26 14L25 14L25 13L27 13L27 12L28 12L28 11L27 11L27 10L23 10L23 9L22 9L22 8L23 8L23 7L22 7L22 8L21 8L21 7L20 7L20 5L21 5L21 4L22 4L22 3L20 3L20 5L18 5L18 4L19 4L19 3L18 3L18 2L17 2L17 1ZM10 3L10 4L11 4L11 3ZM8 5L8 7L9 7L9 5ZM13 6L13 9L14 9L14 6ZM18 6L18 7L19 7L19 6ZM29 8L29 9L30 9L30 8ZM31 8L31 10L33 10L33 9L32 9L32 8ZM2 9L2 11L3 11L3 12L4 12L4 11L5 11L5 9ZM6 9L6 10L7 10L7 9ZM3 10L3 11L4 11L4 10ZM14 10L14 11L12 11L12 13L14 13L14 14L15 14L15 13L16 13L16 12L18 12L18 11L16 11L16 12L15 12L15 10ZM30 11L30 12L31 12L31 11ZM10 12L10 13L11 13L11 12ZM24 14L24 16L25 16L25 14ZM0 15L0 16L1 16L1 15ZM10 15L10 16L11 16L11 15ZM14 15L14 16L15 16L15 15ZM28 16L28 17L29 17L29 16ZM23 17L23 18L24 18L24 17ZM24 19L24 21L25 21L25 19ZM6 21L6 22L7 22L7 21ZM8 22L8 24L9 24L9 22ZM6 23L6 24L7 24L7 23ZM21 23L21 24L22 24L22 23ZM2 24L2 25L4 25L4 24ZM25 25L25 28L28 28L28 25ZM29 25L29 28L30 28L30 29L31 29L31 28L32 28L32 27L31 27L31 26L30 26L30 25ZM26 26L26 27L27 27L27 26ZM16 27L16 28L18 28L18 27ZM23 27L23 30L21 30L21 31L22 31L22 32L23 32L23 31L24 31L24 27ZM30 27L30 28L31 28L31 27ZM8 28L8 33L10 33L10 31L9 31L9 29L10 29L10 28ZM19 28L19 29L22 29L22 28ZM25 29L25 30L28 30L28 31L29 31L29 30L28 30L28 29ZM14 31L14 32L15 32L15 31ZM0 0L0 7L7 7L7 0ZM1 1L1 6L6 6L6 1ZM2 2L2 5L5 5L5 2ZM26 0L26 7L33 7L33 0ZM27 1L27 6L32 6L32 1ZM28 2L28 5L31 5L31 2ZM0 26L0 33L7 33L7 26ZM1 27L1 32L6 32L6 27ZM2 28L2 31L5 31L5 28Z" fill="#000000"/></g></g></svg>
