<?xml version="1.0" encoding="UTF-8"?>
<svg xmlns="http://www.w3.org/2000/svg" version="1.1" width="300" height="300" viewBox="0 0 300 300"><rect x="0" y="0" width="300" height="300" fill="#ffffff"/><g transform="scale(9.091)"><g transform="translate(0,0)"><path fill-rule="evenodd" d="M10 0L10 1L9 1L9 2L8 2L8 3L9 3L9 5L10 5L10 7L11 7L11 8L12 8L12 9L11 9L11 10L10 10L10 9L9 9L9 6L8 6L8 8L4 8L4 9L5 9L5 10L3 10L3 11L4 11L4 12L3 12L3 14L4 14L4 13L5 13L5 16L6 16L6 17L3 17L3 16L2 16L2 15L1 15L1 13L2 13L2 12L1 12L1 11L2 11L2 10L1 10L1 9L3 9L3 8L0 8L0 10L1 10L1 11L0 11L0 12L1 12L1 13L0 13L0 15L1 15L1 16L2 16L2 17L3 17L3 19L2 19L2 18L1 18L1 19L0 19L0 20L1 20L1 21L2 21L2 20L3 20L3 21L4 21L4 18L6 18L6 19L5 19L5 22L4 22L4 23L5 23L5 22L6 22L6 23L8 23L8 22L6 22L6 21L7 21L7 20L11 20L11 21L9 21L9 23L10 23L10 24L12 24L12 25L11 25L11 27L10 27L10 26L9 26L9 24L6 24L6 25L8 25L8 29L9 29L9 30L8 30L8 33L9 33L9 32L10 32L10 33L11 33L11 32L12 32L12 33L13 33L13 32L12 32L12 31L11 31L11 30L12 30L12 28L14 28L14 30L13 30L13 31L14 31L14 30L15 30L15 28L16 28L16 27L15 27L15 26L14 26L14 25L13 25L13 24L12 24L12 23L11 23L11 22L12 22L12 20L14 20L14 22L13 22L13 23L14 23L14 22L15 22L15 18L14 18L14 17L13 17L13 16L12 16L12 15L11 15L11 14L12 14L12 12L14 12L14 13L15 13L15 14L17 14L17 13L19 13L19 12L18 12L18 11L19 11L19 9L20 9L20 10L22 10L22 11L21 11L21 13L20 13L20 14L23 14L23 13L24 13L24 15L23 15L23 16L22 16L22 15L21 15L21 16L20 16L20 15L15 15L15 17L17 17L17 18L16 18L16 19L17 19L17 22L16 22L16 23L17 23L17 30L16 30L16 31L15 31L15 32L16 32L16 31L17 31L17 33L22 33L22 31L23 31L23 30L24 30L24 33L25 33L25 32L26 32L26 33L28 33L28 32L30 32L30 30L29 30L29 29L30 29L30 27L29 27L29 26L30 26L30 23L31 23L31 24L32 24L32 23L33 23L33 20L32 20L32 19L33 19L33 16L32 16L32 15L33 15L33 12L32 12L32 11L33 11L33 9L32 9L32 11L31 11L31 12L32 12L32 14L31 14L31 13L30 13L30 14L28 14L28 13L27 13L27 12L26 12L26 14L28 14L28 15L25 15L25 12L24 12L24 11L23 11L23 10L22 10L22 7L23 7L23 6L24 6L24 8L23 8L23 9L26 9L26 11L27 11L27 10L28 10L28 9L27 9L27 8L25 8L25 5L24 5L24 4L25 4L25 1L24 1L24 0L23 0L23 1L18 1L18 3L16 3L16 1L17 1L17 0L15 0L15 1L14 1L14 3L12 3L12 2L11 2L11 3L12 3L12 5L10 5L10 3L9 3L9 2L10 2L10 1L11 1L11 0ZM20 2L20 3L19 3L19 4L21 4L21 7L20 7L20 6L19 6L19 7L20 7L20 8L21 8L21 7L22 7L22 6L23 6L23 4L22 4L22 3L23 3L23 2ZM13 4L13 5L15 5L15 4ZM17 4L17 5L18 5L18 4ZM11 6L11 7L12 7L12 8L13 8L13 11L14 11L14 10L15 10L15 12L17 12L17 10L15 10L15 9L16 9L16 8L17 8L17 9L19 9L19 8L17 8L17 7L18 7L18 6L17 6L17 7L16 7L16 6L15 6L15 8L13 8L13 7L14 7L14 6L13 6L13 7L12 7L12 6ZM30 8L30 9L29 9L29 10L31 10L31 8ZM6 9L6 10L7 10L7 11L6 11L6 12L8 12L8 9ZM9 10L9 11L10 11L10 10ZM11 11L11 12L12 12L12 11ZM28 11L28 12L30 12L30 11ZM9 12L9 13L6 13L6 14L10 14L10 12ZM22 12L22 13L23 13L23 12ZM13 14L13 15L14 15L14 14ZM30 14L30 16L29 16L29 15L28 15L28 18L26 18L26 16L25 16L25 15L24 15L24 16L23 16L23 17L21 17L21 18L20 18L20 16L19 16L19 19L18 19L18 20L21 20L21 18L22 18L22 19L24 19L24 20L22 20L22 21L23 21L23 22L22 22L22 26L21 26L21 27L23 27L23 24L24 24L24 23L26 23L26 24L27 24L27 23L28 23L28 24L29 24L29 23L28 23L28 22L29 22L29 20L28 20L28 19L29 19L29 18L30 18L30 22L32 22L32 21L31 21L31 18L32 18L32 17L31 17L31 14ZM6 15L6 16L7 16L7 17L6 17L6 18L7 18L7 19L6 19L6 20L7 20L7 19L8 19L8 18L9 18L9 19L10 19L10 18L11 18L11 17L12 17L12 16L11 16L11 15L9 15L9 16L8 16L8 15ZM9 16L9 18L10 18L10 16ZM7 17L7 18L8 18L8 17ZM24 17L24 18L25 18L25 17ZM30 17L30 18L31 18L31 17ZM13 18L13 19L14 19L14 18ZM11 19L11 20L12 20L12 19ZM25 19L25 20L24 20L24 22L25 22L25 20L26 20L26 23L27 23L27 22L28 22L28 21L27 21L27 20L26 20L26 19ZM19 21L19 23L18 23L18 22L17 22L17 23L18 23L18 24L19 24L19 23L20 23L20 24L21 24L21 22L20 22L20 21ZM0 22L0 23L1 23L1 24L0 24L0 25L1 25L1 24L2 24L2 25L5 25L5 24L3 24L3 23L1 23L1 22ZM19 25L19 27L18 27L18 28L19 28L19 30L18 30L18 32L19 32L19 31L20 31L20 32L21 32L21 30L20 30L20 25ZM25 25L25 28L28 28L28 25ZM31 25L31 29L32 29L32 31L31 31L31 33L33 33L33 32L32 32L32 31L33 31L33 29L32 29L32 28L33 28L33 25ZM13 26L13 27L14 27L14 26ZM26 26L26 27L27 27L27 26ZM9 27L9 28L10 28L10 29L11 29L11 28L12 28L12 27L11 27L11 28L10 28L10 27ZM22 28L22 29L24 29L24 30L25 30L25 29L24 29L24 28ZM26 29L26 32L27 32L27 31L28 31L28 29ZM9 30L9 31L10 31L10 30ZM0 0L0 7L7 7L7 0ZM1 1L1 6L6 6L6 1ZM2 2L2 5L5 5L5 2ZM26 0L26 7L33 7L33 0ZM27 1L27 6L32 6L32 1ZM28 2L28 5L31 5L31 2ZM0 26L0 33L7 33L7 26ZM1 27L1 32L6 32L6 27ZM2 28L2 31L5 31L5 28Z" fill="#000000"/></g></g></svg>
